<?xml version="1.0" encoding="UTF-8"?>
<svg id="Layer_1" data-name="Layer 1" xmlns="http://www.w3.org/2000/svg" viewBox="0 0 550.78 392.15">
  <defs>
    <style>
      .cls-1 {
        fill: #000;
        stroke-width: 0px;
      }

      .cls-2 {
        stroke-miterlimit: 10;
      }

      .cls-2, .cls-3 {
        fill: none;
        stroke: #000;
        stroke-linecap: round;
        stroke-width: 25px;
      }

      .cls-3 {
        stroke-linejoin: round;
      }
    </style>
  </defs>
  <path class="cls-1" d="M228.73,180.18h89.08c17.97,0,32.56,14.59,32.56,32.56v1.68c0,42.09-34.17,76.26-76.26,76.26h0c-43.02,0-77.94-34.92-77.94-77.94h0c0-17.97,14.59-32.56,32.56-32.56Z"/>
  <path class="cls-2" d="M274.11,290.69s-7.36,81.41-77.94,80.67"/>
  <path class="cls-2" d="M274.11,290.69s7.36,81.41,77.94,80.67"/>
  <circle class="cls-1" cx="118.6" cy="193.23" r="46.86"/>
  <circle class="cls-1" cx="424.88" cy="193.23" r="46.86"/>
  <path class="cls-2" d="M172.75,297.61c-107.87.13-160.25,37.33-160.25,37.33"/>
  <path class="cls-2" d="M143.13,343.29c-97.59,0-101.02,36.36-101.02,36.36"/>
  <path class="cls-2" d="M396.63,343.29c97.59,0,101.02,36.36,101.02,36.36"/>
  <path class="cls-2" d="M378.02,297.61c107.87.13,160.25,37.33,160.25,37.33"/>
  <path class="cls-3" d="M61.1,73.93c-7.19-25.03,8.8-51.59,35.7-59.31s54.54,6.31,61.72,31.35"/>
  <path class="cls-3" d="M475.44,73.93c7.19-25.03-8.8-51.59-35.7-59.31-26.9-7.72-54.54,6.31-61.72,31.35"/>
</svg>